<?xml version="1.0" encoding="UTF-8"?>
<svg id="Layer_2" data-name="Layer 2" xmlns="http://www.w3.org/2000/svg" viewBox="0 0 1072.8 1073.2">
  <defs>
    <style>
      .cls-1 {
        fill: #fff;
      }

      .cls-2 {
        fill: #3faa6c;
      }

      .cls-3 {
        fill: #0b9444;
      }

      .cls-4 {
        fill: #b6e0c9;
      }

      .cls-5 {
        fill: #a5d2b0;
      }

      .cls-6 {
        fill: #89cca7;
      }

      .cls-7 {
        fill: #92d2b1;
      }

      .cls-8 {
        fill: #d4e3ce;
      }

      .cls-9 {
        fill: #73bf90;
      }

      .cls-10 {
        fill: #6cc396;
      }

      .cls-11 {
        fill: #4cb076;
      }

      .cls-12 {
        fill: #59b47c;
      }

      .cls-13 {
        fill: #26a059;
      }

      .cls-14 {
        fill: #2ea563;
      }

      .cls-15 {
        fill: #82caa2;
      }

      .cls-16 {
        fill: #269f59;
      }

      .cls-17 {
        fill: #a3d1af;
      }

      .cls-18 {
        fill: #51b279;
      }

      .cls-19 {
        fill: #bde1cb;
      }

      .cls-20 {
        fill: #2fa360;
      }

      .cls-21 {
        fill: #99d1af;
      }

      .cls-22 {
        fill: #d0f3eb;
      }

      .cls-23 {
        fill: #41a96a;
      }

      .cls-24 {
        fill: #4b9d54;
      }

      .cls-25 {
        fill: #5cb782;
      }

      .cls-26 {
        fill: #6cc092;
      }

      .cls-27 {
        fill: #6bbe8d;
      }

      .cls-28 {
        fill: #e4fbf9;
      }

      .cls-29 {
        fill: #4cb177;
      }

      .cls-30 {
        fill: #94d1b0;
      }

      .cls-31 {
        fill: #4eaf74;
      }

      .cls-32 {
        fill: #27a059;
      }

      .cls-33 {
        fill: #e4f4ed;
      }

      .cls-34 {
        fill: #7fc69b;
      }

      .cls-35 {
        fill: #a5ddc4;
      }

      .cls-36 {
        fill: #cadfc7;
      }

      .cls-37 {
        fill: #e7f3ea;
      }

      .cls-38 {
        fill: #bce9d9;
      }

      .cls-39 {
        fill: #5cbb88;
      }

      .cls-40 {
        fill: #81c69c;
      }

      .cls-41 {
        fill: #8ccaa3;
      }

      .cls-42 {
        fill: #eef1e7;
      }
    </style>
  </defs>
  <g id="Layer_1-2" data-name="Layer 1">
    <g>
      <circle class="cls-1" cx="537.12" cy="537.52" r="535.68"/>
      <path class="cls-3" d="M537.36,1070.64h-3.84c-3.09-1.07-6.29-.21-9.42-.48-1.58,0-3.16,0-4.74,0-1.05,0-2.09,0-3.14,0-1.55,0-3.1,0-4.64,0-1.51,0-3.02,0-4.53,0-9.37-.87-18.79-.64-28.18-1.36-18.81-1.45-37.32-4.76-55.72-8.71-21.87-4.69-43.35-10.84-64.5-18.13-12.33-4.25-13.81-8.61-7.43-19.86,14.42-25.41,28.8-50.85,43.22-76.27,16.54-29.17,33.01-58.37,49.43-87.61,11.18-19.91,21.8-40.14,33.47-59.76,8.44-14.18,19.73-25.84,33.79-34.68,3.11-1.95,6.08-4.11,9.08-6.24,2.86-2.04,2.21-2.91-.66-3.83-9.74-3.12-19.31-6.7-28.9-10.23-34.37-12.66-67.94-27.18-100.29-44.34-26.97-14.3-53.04-30.12-77.4-48.62-8.53-6.48-16.41-13.71-24.37-20.84-1.38-1.24-2.57-3.34-4.75-2.63-2.2,.71-2.04,3.23-2.23,4.95-2.06,19.16-12.51,33.9-25.1,47.38-13.85,14.82-26.77,30.43-39.72,46.02-11.01,13.25-22.1,26.45-33.26,39.58-13.33,15.68-26.67,31.36-39.91,47.12-8.93,10.63-17.9,21.22-26.78,31.89-1.33,1.6-2.83,3.05-4.39,4.42-4.98,4.38-9.44,4.01-13.47-1.31-7.14-9.43-13.43-19.43-19.64-29.49-21.66-35.06-39.39-71.98-52.58-111.05-9.56-28.33-16.56-57.27-21.25-86.82-3.09-19.44-4.43-38.95-4.53-58.6,0-3.64,0-7.27,0-10.9,0-10.25,0-20.49,0-30.73,0-3.67,0-7.34,0-11-.4-43.32,7.75-85.3,19.94-126.65,9.28-31.51,21.57-61.82,36.64-90.97,18.32-35.43,40.24-68.51,65.73-99.24,10.82-13.04,22.07-25.7,34.1-37.57,34.12-33.67,71.73-62.87,113.47-86.68,29.81-17,60.9-31.06,93.45-41.78,31.28-10.3,63.3-17.53,95.96-22.03,16.81-2.32,33.69-2.46,50.57-3.11,2.06,0,4.13,0,6.19,0,1.31,0,2.61,0,3.92,0,1.32,0,2.63,0,3.95,0,1.33,0,2.66,0,3.99,0,1.63,0,3.26,0,4.88,0,2.76,0,5.53,0,8.29,0,2.48,0,4.96,0,7.43,0,1.62,0,3.24,0,4.86,0,1.06,0,2.12,0,3.18,0,1.56,0,3.13,0,4.69,0,1.53,0,3.06,0,4.59,0,31.09,.05,61.66,4.32,91.92,11.27,46.51,10.68,90.83,27.21,132.91,49.69,32.93,17.59,63.65,38.48,92.14,62.63,13.9,11.78,27.43,23.98,39.96,37.2,29.87,31.53,56.1,65.81,77.68,103.59,19.65,34.38,35.74,70.31,47.77,108.03,9.9,31.07,17.33,62.76,21.47,95.11,1.47,11.5,1.73,23.21,1.67,34.87,0,1.28,0,2.56,0,3.84,0,1.83,0,3.65,0,5.48,0,1.81,0,3.63,0,5.44,.23,1.73-.51,3.55,.48,5.22v29.74c-.93,1.27-.29,2.72-.48,4.08,0,.73,0,1.46,0,2.18,0,1.51,0,3.02,0,4.52,0,2.06,0,4.13,0,6.19,0,1.27,0,2.54,0,3.81,.25,32.66-5.84,64.4-14.23,95.77-8.52,31.85-19.89,62.67-34.06,92.47-4.53,9.53-9.18,18.97-14.24,28.23-1,1.82-1.92,3.68-3.19,5.34-2.6,3.41-4.84,3.83-8.05,1.11-10.11-8.56-20.04-17.34-30.05-26.03-14.1-12.24-28.15-24.54-42.22-36.81-11.79-10.28-23.48-20.67-35.23-30.99-15.71-13.79-31.32-27.69-47.01-41.52-12.33-10.87-24.98-21.42-36.74-32.89-8.58-8.37-17.35-9.83-28.33-5.5-16.94,6.7-34.55,8.69-52.61,4.97-16.98-3.5-28.69-16.85-29.81-34.15-.05-.8-.05-1.6-.15-2.39-.88-7.28-1.97-8.1-9.25-6.93-11.31,1.81-22.55,1.97-33.69-1.25-19.65-5.68-29.47-19.52-32.71-38.99-1.3-7.79-1.17-15.61-.86-23.42,.15-3.9-1.36-5.88-4.93-7.02-6.85-2.18-13.53-4.72-19.76-8.48-16.36-9.88-20-23.35-18.3-39.5,.55-5.22,1.39-10.45,2.82-15.52,1.43-5.07-.31-8.69-4.57-11.44-7.28-4.72-14.04-9.96-18.71-17.53-9.44-15.33-8.38-31.07-1.68-46.82,6.05-14.24,14.67-26.87,25.65-37.86,5.75-5.75,5.49-8.63-1.48-13.17-27.58-17.95-54.81-36.42-82.22-54.62-15.84-10.51-31.38-21.47-48.89-29.22-13.59-6.01-27.11-12.13-41.53-15.99-30.63-8.19-60.38,10.95-64.13,42.55-2.03,17.13,2.24,33.33,13.52,47.07,2.94,3.58,5.78,7.23,8.73,10.81,1.45,1.77,2.79,3.9,.97,6.04-1.64,1.94-3.87,1.05-5.77,.17-7.59-3.52-15.34-6.31-23.86-6.42-18-.23-31.01,8.08-39.05,23.74-7.51,14.62-9.44,30.38-6.68,46.59,1.35,7.91,5.16,14.7,10.71,20.51,1.55,1.62,3.34,3,4.72,4.77,1.01,1.3,1.65,2.83,.65,4.43-1.01,1.61-2.74,1.92-4.24,1.23-7.28-3.36-12.05,.21-16.63,5.39-6.72,7.6-10.46,16.56-11.38,26.4-.99,10.5-.3,20.95,3.01,31.25,3.39,10.55,10.31,18.61,16.82,27.08,2.49,3.24,5.63,6.21,5.67,10.78-.1,.5-.33,.94-.66,1.33-2.57,1.56-4.53-.1-6.6-1.25-4.66-2.58-8.2-6.6-12.5-9.64-4.16-2.94-6.08-2.6-8.59,2.28-8,15.5-10.43,31.7-5.62,48.7,3.78,13.35,10.85,24.74,20.39,34.75,29.74,31.18,64.48,55.61,102.33,75.79,34.56,18.43,69.92,35.16,106.64,48.87,21.72,8.11,43.9,14.67,66.93,17.99,6.48,.93,11.26,4.12,14.56,9.73,18.9,32.09,39.97,62.73,62.48,92.39,16.22,21.36,33.17,42.13,50.42,62.66,16.73,19.92,33.86,39.5,50.87,59.18,11.06,12.8,22.46,25.31,33.82,37.84,4.83,5.33,4.47,8.08-1.9,11.4-36.07,18.76-74.21,31.73-113.79,40.72-19.78,4.49-39.74,7.88-59.87,10.17-8.53,.97-17.19,1.2-25.8,1.14-3.53-.02-6.99,.67-10.51,.53-1.76,0-3.52,0-5.27,0-1.03,0-2.05,0-3.08,0-1.3,0-2.6,0-3.9,0-1.83,0-3.65,0-5.48,0-2.29,.24-4.65-.53-6.89,.48Z"/>
      <path class="cls-13" d="M1.77,518.81c.04,5.58,.12,11.17,.12,16.75,0,5.11-.08,10.21-.13,15.32-1.41-.06-1.22-1.13-1.28-2.04,0-.93,0-1.87,0-2.8-.19-1.33,.44-2.76-.48-4v-13.43c.97-1.52,.26-3.22,.48-4.82,0-.96,0-1.91,0-2.87,.08-.92-.19-2.05,1.29-2.11Z"/>
      <path class="cls-21" d="M1.77,518.81l-.77,2.15c-.35,.62-.69,.61-1-.03v-5.76c.79-1.25,.93-2.65,1.01-4.08,.07-1.25,.08-2.53,.78-3.65,.61,3.79-.2,7.58-.02,11.37Z"/>
      <path class="cls-30" d="M.98,548.74c.26,.71,.52,1.43,.78,2.14-.16,3.79,.64,7.58,.03,11.37-.69-1.13-.71-2.4-.79-3.66-.08-1.43-.23-2.83-1.01-4.08v-5.76c.32-.64,.64-.64,.98-.01Z"/>
      <path class="cls-20" d="M523.83,1069.77c2.2-.02,4.4-.04,6.6-.05,1.12,0,2.2,.15,3.09,.92h-9.6c-.4-.15-.54-.33-.44-.54,.11-.22,.22-.33,.34-.33Z"/>
      <path class="cls-16" d="M542.25,.87c-2.93,0-5.87,0-8.8,0-.6-.34-.58-.63,.07-.86h8.64c.63,.23,.66,.52,.09,.87Z"/>
      <path class="cls-11" d="M542.25,.87c-.04-.29-.07-.58-.09-.87h7.68c.64,.23,.67,.51,.08,.85-2.55,0-5.11,.01-7.66,.02Z"/>
      <path class="cls-8" d="M510.41,.84c.03-.28,.06-.56,.09-.84h6.72c.66,.31,.64,.57-.05,.8-2.25,.16-4.5,.44-6.76,.04Z"/>
      <path class="cls-4" d="M1071.98,569.9c0-2.24,0-4.47,0-6.71,.23-.69,.5-.71,.82-.05v6.72c-.24,.66-.51,.68-.82,.04Z"/>
      <path class="cls-32" d="M537.36,1070.64c2.11-1.59,4.52-.76,6.82-.85,.34,.24,.44,.44,.3,.62-.13,.16-.27,.24-.4,.24h-6.72Z"/>
      <path class="cls-22" d="M562.39,1069.67c-.03,.32-.05,.65-.08,.97h-5.76c-.65-.31-.64-.59,.03-.85,1.93-.22,3.86-.53,5.81-.12Z"/>
      <path class="cls-41" d="M1071.97,517.92c0-1.89,0-3.79,.01-5.68,.31-.62,.59-.6,.82,.05v5.76c-.39,.66-.66,.62-.83-.13Z"/>
      <path class="cls-19" d="M1072.8,512.3c-.27-.05-.55-.07-.82-.05,.01-1.91,.03-3.83,.04-5.74,.29-.63,.56-.62,.79,.04v5.76Z"/>
      <path class="cls-18" d="M544.08,1070.64c.02-.29,.06-.57,.1-.86,1.91,0,3.82,0,5.73,.01,.59,.33,.57,.62-.07,.84h-5.76Z"/>
      <path class="cls-42" d="M567.11,0c0,.29,.03,.58,.06,.87-1.61,.34-3.21,.14-4.82-.04-.68-.24-.69-.52-.04-.83h4.8Z"/>
      <path class="cls-23" d="M1071.97,517.92c.28,.02,.56,.06,.83,.13v4.8c-1.17-1.49-1.04-3.2-.83-4.92Z"/>
      <path class="cls-31" d="M1,523.85c-.08,1.64,.3,3.37-1,4.76v-4.8c.36-.65,.69-.64,1,.04Z"/>
      <path class="cls-6" d="M1072.8,563.14c-.27,.05-.54,.07-.82,.05l.04-4.76c.18-.71,.44-.74,.77-.09v4.8Z"/>
      <path class="cls-28" d="M506.65,1070.64c-.03-.35-.06-.69-.08-1.04,1.63-.42,3.25-.13,4.87,.12,.65,.3,.65,.61,.01,.92h-4.8Z"/>
      <path class="cls-38" d="M511.45,1070.64c0-.31,0-.61-.01-.92,1.6-.38,3.18-.1,4.76,.09,.68,.24,.69,.52,.04,.83h-4.8Z"/>
      <path class="cls-27" d="M523.83,1069.77c.06,.29,.1,.58,.1,.87h-4.8c-.66-.25-.67-.54-.04-.86,1.58,0,3.16,0,4.74,0Z"/>
      <path class="cls-2" d="M533.52,0c-.02,.29-.04,.58-.07,.86-1.6-.02-3.2-.05-4.81-.07-.36-.21-.46-.4-.32-.57,.13-.15,.26-.23,.4-.23h4.8Z"/>
      <path class="cls-40" d="M549.91,.85c-.05-.28-.08-.56-.08-.85h4.8c.66,.25,.67,.53,.03,.83-1.59,0-3.17,0-4.76,.01Z"/>
      <path class="cls-36" d="M562.31,0c.01,.28,.03,.55,.04,.83-1.6,.33-3.2,.16-4.8-.02-.68-.24-.69-.51-.04-.81h4.8Z"/>
      <path class="cls-25" d="M528.72,0c-.02,.27-.05,.53-.08,.79-1.27,0-2.54,.02-3.82,.03-.61-.32-.59-.59,.06-.82h3.84Z"/>
      <path class="cls-34" d="M524.89,0c0,.27-.03,.55-.06,.82-1.27,0-2.55-.01-3.82-.02-.63-.3-.62-.57,.04-.8h3.84Z"/>
      <path class="cls-17" d="M521.05,0c0,.27-.02,.54-.04,.8-1.28,0-2.56,0-3.84,0,.01-.27,.03-.53,.05-.8h3.84Z"/>
      <path class="cls-29" d="M0,542.04c1.15,1.07,.95,2.48,.96,3.83-.32,.64-.64,.64-.96,0v-3.84Z"/>
      <path class="cls-37" d="M1072.8,506.54l-.39-.06-.39,.02c0-1.27-.01-2.55-.02-3.82,.27-.03,.54-.02,.8,.02v3.84Z"/>
      <path class="cls-14" d="M1071.9,556.49c-.1-1.39-.14-2.77,.9-3.9v3.84c-.26,.65-.55,.67-.9,.06Z"/>
      <path class="cls-15" d="M549.83,1070.64c0-.28,.03-.56,.07-.84,1.27,0,2.53,0,3.8-.01,.64,.31,.63,.59-.03,.85h-3.84Z"/>
      <path class="cls-33" d="M1071.98,569.9c.27,.02,.55,0,.82-.04v3.84l-.41,.03h-.41c0-1.28,0-2.55,0-3.83Z"/>
      <path class="cls-5" d="M557.51,0c0,.27,.01,.54,.04,.81-.96,0-1.92,.02-2.88,.03-.03-.28-.04-.56-.03-.84h2.88Z"/>
      <path class="cls-9" d="M1,523.85c-.33-.01-.66-.03-1-.04,0-.96,0-1.92,0-2.88,.33,0,.67,.02,1,.03,0,.96,0,1.93,0,2.89Z"/>
      <path class="cls-7" d="M519.09,1069.78c.04,.29,.05,.57,.04,.86h-2.88c-.01-.28-.03-.55-.04-.83,.96-.01,1.92-.02,2.88-.03Z"/>
      <path class="cls-26" d="M0,545.87c.32,0,.64,0,.96,0,0,.96,.01,1.91,.02,2.87-.33,0-.65,0-.98,.01v-2.88Z"/>
      <path class="cls-35" d="M553.67,1070.64c0-.29,0-.57,.03-.85,.96,0,1.92,0,2.88,0-.01,.28-.02,.57-.03,.85h-2.88Z"/>
      <path class="cls-39" d="M1071.9,556.49c.3-.04,.6-.06,.9-.06v1.92c-.25,.07-.51,.1-.77,.09-.04-.65-.08-1.29-.12-1.94Z"/>
      <path class="cls-1" d="M630.09,423.4c16.69-3.33,19.14-3.92,22.83-5.44,1.4-.58,4.28-1.91,10.04-4.57,4.08-1.89,7.21-3.36,7.98-3.73,9.78-4.64,22.24-11.2,25.83-13.1,1.56-.7,3.13-1.42,4.71-2.16,1-.47,2-.93,2.99-1.4,7.66-5.54,13.54-9.76,17.04-12.43,.89-.68,2.77-2.13,5.62-3.06,1.7-.55,3.48-.83,5.4-.85,9.54-.09,18.31,2.47,26.39,7.45,16.66,10.29,29.55,31.19,27.08,54.16-.5,4.65-1.74,9.08-3.52,13.38-1.26,3.05-3.27,5.47-5.99,7.31-1.19,.8-2.41,1.59-3.69,2.22-7.48,3.65-14.55,8.02-21.63,12.36-3.28,2.01-6.68,3.72-10.26,5.14-17.79,7.11-35.56,14.31-53.04,22.17-3.35,1.51-6.63,3.16-9.91,4.81-.99,.5-1.89,1.18-2.78,1.84-.17,.13-.14,.55-.15,.84,0,.08,.21,.23,.33,.24,.63,.07,1.26,.18,1.88,.13,4.49-.33,8.8-1.53,13.12-2.69,14.11-3.78,27.43-9.54,40.38-16.21,4.27-2.2,8.63-4.11,13.09-5.88,2.44-.97,15.57-6.74,24.24-10.3,3.14-1.29,3.73-1.49,4.96-2.2,2.65-1.52,3.63-2.73,6.1-3.21,2.23-.44,3.31,.18,3.56,.32,.63,.36,1.07,1.08,1.79,2.47,4.52,8.86,8.4,17.92,9.6,27.93,.65,5.48,.14,10.83-1.02,16.18-.78,3.59-2.63,6.51-5.51,8.73-8.89,6.86-13.99,10.05-13.99,10.05-10.56,6.38-15.84,9.56-16.72,9.84,0,0-6.67,2.07-7.09,4.44-.04,.21-.15,.83,.2,1.22,.35,.39,.98,.38,1.38,.34,6.19-.58,9.22-2.24,9.22-2.24,10.12-5.55,14.43-4.62,21.9-9.84,.52-.36,1.67-1.2,3.4-1.97,2.73-1.21,5.61-1.68,8.71-1.71,2.19-.02,4.06,.62,5.78,1.92,3.54,2.68,6.02,6.14,7.67,10.22,1.62,4.03,2.58,8.22,2.92,12.55,.62,7.89-.33,15.63-2.24,23.28-.51,2.01-1.17,3.99-1.63,6.01-.52,2.28-1.69,3.97-3.59,5.41-14.08,10.7-29.78,17.13-47.44,18.92-9.8,.99-19.47,.34-29.13-1.22-6.18-1-10.43-4.48-13-10.15-1.75-3.87-2.28-7.98-2.33-12.15-.07-5.63,.91-11.13,2.5-16.52,.46-1.57,1.3-2.89,2.39-4.1,.85-.94,1.66-1.95,2.31-3.04,1.13-1.89,.57-3.26-1.53-4.16-2-.85-3.88-.99-5.95,.1-9.34,4.93-19.45,7.07-29.89,7.99-3.5,.31-6.99,.79-10.52,.66-5.8-.22-11.45-1.24-16.73-3.73-11.44-5.4-17.91-14.54-19.9-26.94-1.13-7.07-.4-14.03,1.56-20.86,1.19-4.14,2.55-8.23,3.85-12.34,.38-1.22,.84-2.41,1.21-3.64,.75-2.51,.4-3.01-2.39-3.24-1.75-.14-3.51-.19-5.27-.22-2.88-.05-5.76-.01-8.63-.06-9.51-.17-17.78-3.65-24.96-9.69-6.48-5.45-9.08-12.6-8.21-20.96,.25-2.37,.83-4.72,1.49-7.02,.7-2.45,1.62-4.84,2.51-7.23,1.28-3.45,2.34-6.96,2.95-10.6,1.27-7.69-1.41-12.96-8.41-16.53-2.29-1.17-4.69-2.05-7.18-2.63-1.63-.38-2.89-1.14-3.94-2.5-.86-1.12-2.02-2.02-3.1-2.97-2.16-1.91-4.14-3.98-5.86-6.31-4.87-6.63-5.93-13.99-4.21-21.86,.37-1.71,.91-3.41,1.59-5.02,4.99-11.66,11.04-22.69,19.18-32.49,6.39-7.69,13.84-14.14,22.46-19.25,21.72-12.87,43.42-25.76,65.12-38.65,5-2.97,10.26-5.14,16.13-5.69,4.24-.39,8.22,.15,12.06,2.14,4.7,2.44,9.21,5.12,13.24,8.58,9.59,8.23,14.67,18.77,15.77,31.25,.91,10.29-.33,20.41-2.68,30.43-.94,4-2.88,7.41-5.56,10.46-1.29,1.46-2.79,2.52-4.59,3.35-4.7,2.18-36.47,25.45-88.9,46.07-2.04,.8-5.88,2.3-10.8,4.09,3.15-.62,7.01-1.38,11.42-2.26Z"/>
      <path class="cls-1" d="M479.71,239.31c2.61-4.32,6.7-6.23,11.43-7.02,1.57-.26,3.18-.26,4.78-.35,8.3-.45,16.59-.9,24.89-1.31,15.68-.77,31.33-.61,46.88,1.71,7.27,1.09,14.53,2.47,21.43,5,5.79,2.13,11.5,2.15,17.45,1.36,13.64-1.82,27.34-2.88,41.11-2.56,10.4,.24,20.72,1.32,30.88,3.68,3.12,.73,6.18,1.6,9.07,3.01,7.12,3.46,10.15,8.83,9.45,16.66-.09,.95-.26,1.9-.35,2.86-.38,3.78-1.91,6.84-4.7,9.59-7.77,7.64-15.91,14.8-24.98,20.87-14.7,9.84-30.75,16.22-48.29,18.66-6.97,.97-14,1.38-21.05,1.05-4.07-.19-7.87-1.24-11.36-3.38-1.77-1.09-3.54-2.18-5.28-3.31-32.42-21.07-64.84-42.14-97.25-63.24-1.44-.94-3.16-1.58-4.12-3.29Z"/>
      <path class="cls-24" d="M630.09,423.4c-.53,.81-1.39,.62-2.15,.7-.9,.49-1.77,.52-2.62-.11,.89-1.06,2.05-1.62,3.4-1.84,.46,.41,.92,.83,1.38,1.24Z"/>
      <path class="cls-12" d="M298.55,525.59c.59,.23,.99,.74,.88,1.28-.15,.76-.63,.76-1.03,.08,.05-.46,.1-.91,.15-1.37Z"/>
      <path class="cls-10" d="M625.31,424c.87,.04,1.74,.07,2.62,.11-.86,.61-1.81,.99-2.88,.92-.45-.03-.81-.29-.53-.79,.1-.18,.52-.17,.79-.25Z"/>
    </g>
  </g>
</svg>